<svg version="1" xmlns="http://www.w3.org/2000/svg" width="5461.333" height="5461.333" viewBox="0 0 4096.000000 4096.000000"><path d="M2106.4 830c-123.5 7-234.4 35.6-342.9 88.4-118.8 57.8-219 137.5-302.6 240.6-105.8 130.5-171.8 288.4-190.4 455-1.3 11.8-2.6 26.9-3 33.5-.9 17.2-.9 17.3-5.3 18-13.3 2-21.7 4-28.9 6.9l-8.2 3.3-1.2-2.9c-.6-1.5-3.3-6-6-9.8l-4.8-7.1 5.4-16.2c33.7-101.4 44.5-298.8 24.9-458.7-11.4-92.9-32.6-158.9-56.3-174.9-26.3-17.7-52.3 24.7-70 114.4-7.9 40-12.3 75.9-16.7 137-2.1 29.9-3 118-1.5 153 4.3 102.7 16.8 184.1 36.6 238.3l2.6 7.3-2.9 3.7c-10.7 13.5-16.2 31.4-16.2 52.2 0 22 5.8 39.7 17.9 54.6l4.8 5.9-1.9 4.5c-19.8 45.5-32.9 119.8-40 226-1.8 26.6-1.8 140.4 0 167 6.8 102.3 18.9 173 37.6 219.7 9.1 22.6 19.3 37.6 28.9 42.2 5.1 2.5 12.3 2.7 17.2.7 28.8-12.1 55.6-105.8 64.9-226.6 3.8-48.6 4.1-57.5 4.1-119.5s-.4-71.6-4.1-119.5c-6.2-80-19.9-149.4-37.8-191.1l-1.5-3.6 4.5-5.4c2.5-3 6.1-8.2 8-11.7 2-3.4 3.8-6.2 4.2-6.2.3 0 3.4 1.1 6.8 2.5 7.1 2.8 20.1 6 28.6 7 6.5.7 6-.4 7.8 15.5 15.3 129.7 84.5 290.4 193 448 58.1 84.5 130.3 170.5 191.1 227.7 18.3 17.2 19 17.9 20.8 23.8 1 3.3 29.3 90.8 62.9 194.5 61 188.5 61 188.5 60 193.5-.8 3.6-.5 63.2 1 213 2 203.6 2.1 208.1 4.1 214.6 5.2 16.8 18.7 29.2 35.7 33 4 .9 76.7.6 318.6-1.5 173-1.4 316.2-3.1 319.7-3.6 14.3-2.1 29.1-12.6 35.4-25.1 5.8-11.6 5.7-5.7 4.2-159.7-.8-77.4-1.5-158.3-1.5-179.7l-.1-39L2581 2693c36.9-121.3 68.6-225.5 70.5-231.7 3.5-10.9 3.7-11.3 12.2-21 4.8-5.4 20-21.3 33.8-35.3 44.6-45.5 73.2-77.2 106.1-117.5 124.7-153 201.2-309.1 226.3-462.5 7.2-43.8 8.6-63.2 8.6-117 0-47.2-.6-57.5-5-97.5-21.1-189.5-107.3-371.4-241.1-509.5-85-87.5-181.1-153.7-292.4-201.3-89.2-38.1-181.6-60.5-281-68.2-23.9-1.9-90.3-2.8-112.6-1.5zM1889 2617.5c35.4 2.4 66.5 3.4 147 4.5 194.6 2.6 380.1 3.6 410.5 2.1 7.7-.4 14.1-.6 14.2-.6.4.1-58.3 192.4-58.8 193-.5.5-402.8 4.5-452.9 4.5h-20.5l-32.9-101.8c-18.1-55.9-33.2-102.3-33.4-103.1-.4-1 .2-1.2 2.4-.7 1.6.3 12.6 1.3 24.4 2.1zm321.3 416.3c4.3 1.9 4.7 2.4 4.7 5.5v3.4l-6.2-3.1c-12.4-6.2-27.2-3.5-37.2 6.9-11.7 11.9-11.6 32.1.2 44 6.7 6.9 13.8 9.9 23.2 9.9 4.1.1 9.2-.5 11.3-1.2l3.7-1.4V3078h-24v-5h29v28.1l-4.7 2.2c-4 1.8-6.6 2.2-15.3 2.2-9.8 0-10.9-.2-16.5-3.2-8-4.1-13.7-10-17.7-18.1-3-6-3.3-7.5-3.3-15.7 0-7.8.4-9.8 2.8-15 4.4-9.4 13.9-18 23-21 6.3-2.1 20.9-1.4 27 1.3zm-295.1-.7c6.4 1.4 10.2 3.2 14.8 7.2 9 7.8 13.5 18.6 12.8 30.7-1.1 18.9-14.6 32.6-33.3 33.8l-7.5.5V3032h4c2.1 0 6.3.5 9.2 1.1zm457.8 15.4v16.5l3.8-2.4c5.5-3.6 12.8-4.3 18.3-1.8 5.3 2.5 6.8 3.7 9.9 8.2 2.4 3.3 2.5 4.4 2.8 19.7l.4 16.3h-6.2v-15.1c0-13.7-.2-15.5-2.1-18.6-5.7-9.2-20.1-8.2-25.1 1.7-1.5 2.8-1.8 6.2-1.8 17.7v14.3h-6v-35.8c0-19.7.3-36.2.7-36.5.3-.4 1.7-.7 3-.7h2.3v16.5zm-396.4 13.1c1.7 1.2 2.4 2.5 2.4 5v3.3l-3.6-2.4c-5.2-3.5-10.4-3.4-14.6.4l-3.3 2.9-.3 17.1-.3 17.1h-5.9l.2-22.3.3-22.2 2.8-.3c2.2-.3 2.7.1 2.7 1.9 0 2 .2 2.1 1.8.7 4.4-3.9 12.8-4.4 17.8-1.2zm42.8 1.4c1.8 1 4 2.8 5 3.8 1.6 1.9 1.2 2.4-12.8 15.8-8 7.7-14.6 14.2-14.6 14.6 0 .4 1.3 1.4 3 2.3 6.5 3.4 16.2.7 21.8-6.1l3.2-3.9v4.7c0 4.1-.4 5-3.3 7.2-4.5 3.4-8.4 4.7-14.2 4.8-7.1 0-12.8-2.6-17.9-8.3-7.5-8.3-8.3-18.6-2.2-27.7 6.7-10.1 21.9-13.5 32-7.2zm43.9-1.5c1.8.7 4.4 2.3 6 3.5l2.7 2.1v-3.6c0-3.4.2-3.6 2.8-3.3l2.7.3.3 22.2.2 22.3h-3c-2.8 0-3-.3-3-3.7v-3.7l-2.8 2.7c-5.8 5.5-17.1 7.3-24.8 3.8-5.9-2.7-11.2-8.6-12.9-14.4-1.9-6.3-1.9-7.1.1-13.6 3.9-13.3 18.7-20.1 31.7-14.6zm44.8-1.5c1.9.5 4.8 2.3 6.4 4l2.8 2.9 3.3-2.9c3.2-2.8 8.8-5 12.8-5 3.6 0 10.1 3.9 12.6 7.7 2.4 3.5 2.5 4.4 2.8 21l.4 17.3h-6.2v-16c0-21.1-1.4-24-11.3-24-3.9 0-4.9.5-7.6 3.5l-3.1 3.6v32.9h-5.9l-.3-16.9-.3-17-2.9-3c-2.5-2.6-3.7-3.1-7.7-3.1-4.1 0-5.1.4-7.8 3.5l-3.1 3.6v32.9h-6v-45h3c2.4 0 3 .4 3 2.2 0 1.9.2 2 1.8.6 1.6-1.5 6.6-3.6 8.7-3.7.6-.1 2.6.4 4.6.9zm141.7 1.6c1.6 1 2.2 2.4 2.2 5v3.5l-3.3-2.5c-3.9-3-10-3.5-13.5-1-4.5 3.1-5.2 6.2-5.2 22.9v15.5h-5v-45h2.5c1.9 0 2.5.5 2.5 2.1 0 1.8.2 1.9 1.5.9 4.7-3.9 13.4-4.6 18.3-1.4zm40.7.6c2.2 1.1 4.8 2.7 5.8 3.6 1.6 1.4 1.7 1.3 1.7-2.1 0-3.3.3-3.7 2.5-3.7h2.5v45h-2.5c-2.2 0-2.5-.4-2.5-3.7v-3.6l-2.2 2.1c-3.8 3.5-10.9 6.2-16.6 6.2-15.6 0-27.2-16.3-21.7-30.6 5.3-14 19.8-19.8 33-13.2zm56.6-.1c2 1 5.3 3.7 7.3 6.1 6.1 7.1 7.2 15.8 3.2 24.3-2.6 5.6-5.3 8.3-11.1 11.4-7.4 3.9-19.7 2-26.2-4.1l-2.3-2.1V3124h-5v-64h2.5c2.2 0 2.5.4 2.5 3.5v3.4l4.9-3.1c2.8-1.6 6.5-3.4 8.3-3.8 4.4-1.2 11.4-.2 15.9 2.1z"/><path d="M1908 3068.7v31l5.1-.8c9-1.4 16.2-7 21.2-16.3 1.8-3.4 2.2-5.7 2.2-14.1 0-8.5-.3-10.6-2.3-14.3-4.6-8.6-13.3-15-21.9-16l-4.3-.5v31zM1998.5 3066.9c-6.3 3.9-9.5 9.2-9.5 15.7 0 3.7 2.4 10.4 3.7 10.4.5 0 6.4-5.6 13.3-12.5l12.4-12.4-3.7-1.6c-5-2.1-12.5-1.9-16.2.4zM2046.5 3066.4c-13.8 6.2-14 25.7-.3 32.7 6.6 3.4 16.1 1.7 21-3.8 4.3-4.7 5.9-13.2 3.7-19-1.3-3.4-5.5-8-9.1-9.9-3.4-1.8-11.3-1.8-15.3 0zM2272.5 3066.2c-3.2 1.7-7.6 6.1-9.1 9-1.9 3.7-1.8 11.6.4 15.7 4.5 8.9 15.4 12.6 24 8.2 4.7-2.4 8.8-7.9 9.7-13.2 1.4-7.5-3.4-16.7-10.2-19.5-3.9-1.7-12-1.8-14.8-.2zM2327.7 3067.1c-9 4.7-12.1 17.4-6.3 25.8 10.4 15 32.6 7.8 32.6-10.5 0-13.3-14.3-21.6-26.3-15.3z"/></svg>